{
  "accessors": [
    {
      "bufferView": 2,
      "componentType": 5126,
      "count": 566,
      "max": [
        0.26714640855789185,
        3.552713599391162e-17,
        0.6834719777107239
      ],
      "min": [
        -0.26714640855789185,
        -0.14060629904270172,
        -6.10351571594947e-06
      ],
      "type": "VEC3"
    },
    {
      "bufferView": 2,
      "byteOffset": 6792,
      "componentType": 5126,
      "count": 566,
      "max": [
        0.999984622001648,
        0.01980939321219921,
        0.999984622001648
      ],
      "min": [
        -0.9999845623970032,
        -0.9999848008155823,
        -0.9999845623970032
      ],
      "type": "VEC3"
    },
    {
      "bufferView": 3,
      "componentType": 5126,
      "count": 566,
      "max": [
        1.0,
        1.0,
        1.0,
        1.0
      ],
      "min": [
        1.0,
        1.0,
        1.0,
        1.0
      ],
      "type": "VEC4"
    },
    {
      "bufferView": 1,
      "componentType": 5126,
      "count": 566,
      "max": [
        0.79443359375,
        0.9564208984375
      ],
      "min": [
        0.0008401870727539063,
        0.0009765625
      ],
      "type": "VEC2"
    },
    {
      "bufferView": 1,
      "byteOffset": 4528,
      "componentType": 5126,
      "count": 566,
      "max": [
        0.939453125,
        0.99603271484375
      ],
      "min": [
        0.003742218017578125,
        0.00390625
      ],
      "type": "VEC2"
    },
    {
      "bufferView": 0,
      "componentType": 5125,
      "count": 1098,
      "type": "SCALAR"
    },
    {
      "bufferView": 2,
      "byteOffset": 13584,
      "componentType": 5126,
      "count": 164,
      "max": [
        0.22316430509090424,
        -0.09350629895925522,
        0.5042898654937744
      ],
      "min": [
        -0.2231643795967102,
        -0.14060629904270172,
        0.06175277754664421
      ],
      "type": "VEC3"
    },
    {
      "bufferView": 2,
      "byteOffset": 15552,
      "componentType": 5126,
      "count": 164,
      "max": [
        0.999984622001648,
        -0.0038829853292554617,
        0.9999845623970032
      ],
      "min": [
        -0.9999845623970032,
        -0.9999845623970032,
        -0.9999845623970032
      ],
      "type": "VEC3"
    },
    {
      "bufferView": 3,
      "byteOffset": 9056,
      "componentType": 5126,
      "count": 164,
      "max": [
        0.0,
        0.0,
        0.0,
        1.0
      ],
      "min": [
        0.0,
        0.0,
        0.0,
        1.0
      ],
      "type": "VEC4"
    },
    {
      "bufferView": 1,
      "byteOffset": 9056,
      "componentType": 5126,
      "count": 164,
      "max": [
        0.99951171875,
        0.42578125
      ],
      "min": [
        0.5732421875,
        0.0009765625
      ],
      "type": "VEC2"
    },
    {
      "bufferView": 1,
      "byteOffset": 10368,
      "componentType": 5126,
      "count": 164,
      "max": [
        0.939453125,
        0.92987060546875
      ],
      "min": [
        0.342041015625,
        0.00390625
      ],
      "type": "VEC2"
    },
    {
      "bufferView": 0,
      "byteOffset": 4392,
      "componentType": 5125,
      "count": 324,
      "type": "SCALAR"
    },
    {
      "bufferView": 2,
      "byteOffset": 17520,
      "componentType": 5126,
      "count": 24,
      "max": [
        0.21529708802700043,
        4.423152697412447e-18,
        0.07223556190729141
      ],
      "min": [
        0.0,
        -0.024111397564411163,
        -3.814697180359872e-08
      ],
      "type": "VEC3"
    },
    {
      "bufferView": 2,
      "byteOffset": 17808,
      "componentType": 5126,
      "count": 24,
      "max": [
        0.999984622001648,
        0.9999842643737793,
        0.9999845623970032
      ],
      "min": [
        -0.9999843239784241,
        -0.9999845623970032,
        -0.9999842643737793
      ],
      "type": "VEC3"
    },
    {
      "bufferView": 1,
      "byteOffset": 11680,
      "componentType": 5126,
      "count": 24,
      "max": [
        0.2108154296875,
        0.9959983825683594
      ],
      "min": [
        0.0008401870727539063,
        0.8404541015625
      ],
      "type": "VEC2"
    },
    {
      "bufferView": 1,
      "byteOffset": 11872,
      "componentType": 5126,
      "count": 24,
      "max": [
        0.99609375,
        0.92852783203125
      ],
      "min": [
        0.00396728515625,
        0.00390625
      ],
      "type": "VEC2"
    },
    {
      "bufferView": 0,
      "byteOffset": 5688,
      "componentType": 5125,
      "count": 36,
      "type": "SCALAR"
    },
    {
      "bufferView": 4,
      "componentType": 5126,
      "count": 121,
      "max": [
        2.5
      ],
      "min": [
        0.0
      ],
      "type": "SCALAR"
    },
    {
      "bufferView": 5,
      "componentType": 5126,
      "count": 121,
      "max": [
        402.2724609375,
        199.43031311035156,
        199.43031311035156
      ],
      "min": [
        2.230574607849121,
        199.43031311035156,
        199.43031311035156
      ],
      "type": "VEC3"
    }
  ],
  "animations": [
    {
      "channels": [
        {
          "sampler": 0,
          "target": {
            "node": 7,
            "path": "scale"
          }
        }
      ],
      "name": "SM_HandScanner_Bar.mo|SM_HandScanner_Bar.moAction",
      "samplers": [
        {
          "input": 17,
          "interpolation": "LINEAR",
          "output": 18
        }
      ]
    }
  ],
  "asset": {
    "extras": {
      "author": "TOY WAR (https://sketchfab.com/toywar.com)",
      "license": "CC-BY-4.0 (http://creativecommons.org/licenses/by/4.0/)",
      "source": "https://sketchfab.com/3d-models/poppy-playtime-3-blue-hand-scanner-b941bf12546d43c4961395e34a67da58",
      "title": "Poppy Playtime 3 Blue Hand Scanner"
    },
    "generator": "Sketchfab-16.8.0",
    "version": "2.0"
  },
  "bufferViews": [
    {
      "buffer": 0,
      "byteLength": 5832,
      "name": "floatBufferViews",
      "target": 34963
    },
    {
      "buffer": 0,
      "byteLength": 12064,
      "byteOffset": 5832,
      "byteStride": 8,
      "name": "floatBufferViews",
      "target": 34962
    },
    {
      "buffer": 0,
      "byteLength": 18096,
      "byteOffset": 17896,
      "byteStride": 12,
      "name": "floatBufferViews",
      "target": 34962
    },
    {
      "buffer": 0,
      "byteLength": 11680,
      "byteOffset": 35992,
      "byteStride": 16,
      "name": "floatBufferViews",
      "target": 34962
    },
    {
      "buffer": 0,
      "byteLength": 484,
      "byteOffset": 47672,
      "name": "floatBufferViews"
    },
    {
      "buffer": 0,
      "byteLength": 1452,
      "byteOffset": 48156,
      "byteStride": 12,
      "name": "floatBufferViews"
    }
  ],
  "buffers": [
    {
      "byteLength": 49608,
      "uri": "scene.bin"
    }
  ],
  "extensionsRequired": [
    "KHR_materials_pbrSpecularGlossiness"
  ],
  "extensionsUsed": [
    "KHR_materials_pbrSpecularGlossiness",
    "KHR_materials_emissive_strength"
  ],
  "images": [
    {
      "uri": "textures/Material.319_diffuse.png"
    }
  ],
  "materials": [
    {
      "doubleSided": true,
      "extensions": {
        "KHR_materials_pbrSpecularGlossiness": {
          "diffuseFactor": [
            1.0,
            1.0,
            1.0,
            1.0
          ],
          "diffuseTexture": {
            "index": 0
          },
          "glossinessFactor": 0.1788854381999832,
          "specularFactor": [
            0.0,
            0.0,
            0.0
          ]
        }
      },
      "name": "Material.319"
    },
    {
      "doubleSided": true,
      "emissiveFactor": [
        1.0,
        1.0,
        1.0
      ],
      "emissiveTexture": {
        "index": 0
      },
      "extensions": {
        "KHR_materials_emissive_strength": {
          "emissiveStrength": 1.093653896967763
        },
        "KHR_materials_pbrSpecularGlossiness": {
          "diffuseFactor": [
            1.0,
            1.0,
            1.0,
            1.0
          ],
          "diffuseTexture": {
            "index": 0
          },
          "glossinessFactor": 0.1788854381999832,
          "specularFactor": [
            1.0,
            1.0,
            1.0
          ],
          "specularGlossinessTexture": {
            "index": 0
          }
        }
      },
      "name": "Material.320"
    },
    {
      "doubleSided": true,
      "emissiveFactor": [
        1.0,
        1.0,
        1.0
      ],
      "emissiveTexture": {
        "index": 0
      },
      "extensions": {
        "KHR_materials_emissive_strength": {
          "emissiveStrength": 3.9481938301593815
        },
        "KHR_materials_pbrSpecularGlossiness": {
          "diffuseFactor": [
            1.0,
            1.0,
            1.0,
            1.0
          ],
          "diffuseTexture": {
            "index": 0
          },
          "glossinessFactor": 0.1788854381999832,
          "specularFactor": [
            0.0,
            0.0,
            0.0
          ]
        }
      },
      "name": "Material.321"
    }
  ],
  "meshes": [
    {
      "name": "SM_HandScanner.mo_Material.319_0",
      "primitives": [
        {
          "attributes": {
            "COLOR_0": 2,
            "NORMAL": 1,
            "POSITION": 0,
            "TEXCOORD_0": 3,
            "TEXCOORD_1": 4
          },
          "indices": 5,
          "material": 0,
          "mode": 4
        }
      ]
    },
    {
      "name": "SM_HandScanner.mo_Material.320_0",
      "primitives": [
        {
          "attributes": {
            "COLOR_0": 8,
            "NORMAL": 7,
            "POSITION": 6,
            "TEXCOORD_0": 9,
            "TEXCOORD_1": 10
          },
          "indices": 11,
          "material": 1,
          "mode": 4
        }
      ]
    },
    {
      "name": "SM_HandScanner_Bar.mo_Material.321_0",
      "primitives": [
        {
          "attributes": {
            "NORMAL": 13,
            "POSITION": 12,
            "TEXCOORD_0": 14,
            "TEXCOORD_1": 15
          },
          "indices": 16,
          "material": 2,
          "mode": 4
        }
      ]
    }
  ],
  "nodes": [
    {
      "children": [
        1
      ],
      "matrix": [
        1.0,
        0.0,
        0.0,
        0.0,
        0.0,
        2.220446049250313e-16,
        -1.0,
        0.0,
        0.0,
        1.0,
        2.220446049250313e-16,
        0.0,
        0.0,
        0.0,
        0.0,
        1.0
      ],
      "name": "Sketchfab_model"
    },
    {
      "children": [
        2
      ],
      "matrix": [
        0.009999999776482582,
        0.0,
        0.0,
        0.0,
        0.0,
        0.0,
        0.009999999776482582,
        0.0,
        0.0,
        -0.009999999776482582,
        0.0,
        0.0,
        0.0,
        0.0,
        0.0,
        1.0
      ],
      "name": "handscanner.fbx"
    },
    {
      "children": [
        3
      ],
      "name": "Object_2"
    },
    {
      "children": [
        4,
        7
      ],
      "name": "RootNode"
    },
    {
      "children": [
        5,
        6
      ],
      "name": "SM_HandScanner.mo",
      "rotation": [
        -0.7071067690849304,
        -0.0,
        0.0,
        0.7071068286895752
      ],
      "scale": [
        199.43031311035156,
        199.43031311035156,
        199.43031311035156
      ]
    },
    {
      "mesh": 0,
      "name": "SM_HandScanner.mo_Material.319_0"
    },
    {
      "mesh": 1,
      "name": "SM_HandScanner.mo_Material.320_0"
    },
    {
      "children": [
        8
      ],
      "name": "SM_HandScanner_Bar.mo",
      "rotation": [
        -0.7071067690849304,
        -0.0,
        0.0,
        0.7071068286895752
      ],
      "scale": [
        27.96195411682129,
        199.43031311035156,
        199.43031311035156
      ],
      "translation": [
        -42.730384826660156,
        110.44692993164063,
        21.30031967163086
      ]
    },
    {
      "mesh": 2,
      "name": "SM_HandScanner_Bar.mo_Material.321_0"
    }
  ],
  "samplers": [
    {
      "magFilter": 9729,
      "minFilter": 9987,
      "wrapS": 10497,
      "wrapT": 10497
    }
  ],
  "scene": 0,
  "scenes": [
    {
      "name": "Sketchfab_Scene",
      "nodes": [
        0
      ]
    }
  ],
  "textures": [
    {
      "sampler": 0,
      "source": 0
    }
  ]
}
