{
  "accessors": [
    {
      "bufferView": 2,
      "componentType": 5126,
      "count": 2452,
      "max": [
        1.0,
        1.0,
        0.9000003337860107
      ],
      "min": [
        -1.0,
        -1.0,
        -1.2666667699813843
      ],
      "type": "VEC3"
    },
    {
      "bufferView": 2,
      "byteOffset": 29424,
      "componentType": 5126,
      "count": 2452,
      "max": [
        1.0,
        1.0,
        1.0
      ],
      "min": [
        -1.0,
        -1.0,
        -1.0
      ],
      "type": "VEC3"
    },
    {
      "bufferView": 1,
      "componentType": 5126,
      "count": 2452,
      "max": [
        0.8097829818725586,
        0.30978286266326904
      ],
      "min": [
        0.0,
        0.0
      ],
      "type": "VEC2"
    },
    {
      "bufferView": 0,
      "componentType": 5125,
      "count": 5916,
      "type": "SCALAR"
    },
    {
      "bufferView": 2,
      "byteOffset": 58848,
      "componentType": 5126,
      "count": 512,
      "max": [
        0.8999999761581421,
        0.8999999761581421,
        0.833333432674408
      ],
      "min": [
        -0.8999999761581421,
        -0.8999999761581421,
        -1.0
      ],
      "type": "VEC3"
    },
    {
      "bufferView": 2,
      "byteOffset": 64992,
      "componentType": 5126,
      "count": 512,
      "max": [
        1.0,
        1.0,
        1.0
      ],
      "min": [
        -1.0,
        -1.0,
        -1.0
      ],
      "type": "VEC3"
    },
    {
      "bufferView": 0,
      "byteOffset": 23664,
      "componentType": 5125,
      "count": 1536,
      "type": "SCALAR"
    },
    {
      "bufferView": 2,
      "byteOffset": 71136,
      "componentType": 5126,
      "count": 2416,
      "max": [
        1.0,
        1.0,
        0.9000003337860107
      ],
      "min": [
        -1.0,
        -1.0,
        -1.2666667699813843
      ],
      "type": "VEC3"
    },
    {
      "bufferView": 2,
      "byteOffset": 100128,
      "componentType": 5126,
      "count": 2416,
      "max": [
        1.0,
        1.0,
        1.0
      ],
      "min": [
        -1.0,
        -1.0,
        -1.0
      ],
      "type": "VEC3"
    },
    {
      "bufferView": 1,
      "byteOffset": 19616,
      "componentType": 5126,
      "count": 2416,
      "max": [
        0.8097829818725586,
        0.30978286266326904
      ],
      "min": [
        0.0,
        0.0
      ],
      "type": "VEC2"
    },
    {
      "bufferView": 0,
      "byteOffset": 29808,
      "componentType": 5125,
      "count": 5880,
      "type": "SCALAR"
    },
    {
      "bufferView": 2,
      "byteOffset": 129120,
      "componentType": 5126,
      "count": 932,
      "max": [
        1.601794719696045,
        0.8125,
        0.20000027120113373
      ],
      "min": [
        -1.600000023841858,
        -0.75,
        -0.19999998807907104
      ],
      "type": "VEC3"
    },
    {
      "bufferView": 2,
      "byteOffset": 140304,
      "componentType": 5126,
      "count": 932,
      "max": [
        1.0,
        1.0,
        1.0
      ],
      "min": [
        -1.0,
        -1.0,
        -1.0
      ],
      "type": "VEC3"
    },
    {
      "bufferView": 1,
      "byteOffset": 38944,
      "componentType": 5126,
      "count": 932,
      "max": [
        0.9790247678756714,
        0.9408418536186218
      ],
      "min": [
        0.02097517065703869,
        0.02097517065703869
      ],
      "type": "VEC2"
    },
    {
      "bufferView": 0,
      "byteOffset": 53328,
      "componentType": 5125,
      "count": 2814,
      "type": "SCALAR"
    },
    {
      "bufferView": 2,
      "byteOffset": 151488,
      "componentType": 5126,
      "count": 68,
      "max": [
        1.505961298942566,
        0.4880000054836273,
        0.1900002658367157
      ],
      "min": [
        -1.5059614181518555,
        -0.34800001978874207,
        0.1900000125169754
      ],
      "type": "VEC3"
    },
    {
      "bufferView": 2,
      "byteOffset": 152304,
      "componentType": 5126,
      "count": 68,
      "max": [
        2.2446470211434644e-06,
        7.477551801219392e-15,
        1.0
      ],
      "min": [
        -1.1918059499294031e-06,
        0.0,
        1.0
      ],
      "type": "VEC3"
    },
    {
      "bufferView": 1,
      "byteOffset": 46400,
      "componentType": 5126,
      "count": 68,
      "max": [
        0.9209813475608826,
        0.8633818626403809
      ],
      "min": [
        0.7074345350265503,
        0.3205091655254364
      ],
      "type": "VEC2"
    },
    {
      "bufferView": 0,
      "byteOffset": 64584,
      "componentType": 5125,
      "count": 192,
      "type": "SCALAR"
    },
    {
      "bufferView": 2,
      "byteOffset": 153120,
      "componentType": 5126,
      "count": 68,
      "max": [
        1.3709373474121094,
        0.46299999952316284,
        0.1900002509355545
      ],
      "min": [
        -1.1209373474121094,
        -0.75,
        -0.15199999511241913
      ],
      "type": "VEC3"
    },
    {
      "bufferView": 2,
      "byteOffset": 153936,
      "componentType": 5126,
      "count": 68,
      "max": [
        0.0,
        1.0,
        1.0
      ],
      "min": [
        -1.8006268476256082e-07,
        0.0,
        -7.870440299484471e-08
      ],
      "type": "VEC3"
    },
    {
      "bufferView": 1,
      "byteOffset": 46944,
      "componentType": 5126,
      "count": 68,
      "max": [
        0.7531936764717102,
        0.8484681248664856
      ],
      "min": [
        0.20353637635707855,
        0.3205091655254364
      ],
      "type": "VEC2"
    },
    {
      "bufferView": 0,
      "byteOffset": 65352,
      "componentType": 5125,
      "count": 192,
      "type": "SCALAR"
    }
  ],
  "asset": {
    "extras": {
      "author": "MaggaModels (https://sketchfab.com/MaggaModels)",
      "license": "CC-BY-4.0 (http://creativecommons.org/licenses/by/4.0/)",
      "source": "https://sketchfab.com/3d-models/vhs-tape-abdc9267d59046909d1ce34b2f93a596",
      "title": "VHS Tape"
    },
    "generator": "Sketchfab-14.94.0",
    "version": "2.0"
  },
  "bufferViews": [
    {
      "buffer": 0,
      "byteLength": 66120,
      "name": "floatBufferViews",
      "target": 34963
    },
    {
      "buffer": 0,
      "byteLength": 47488,
      "byteOffset": 66120,
      "byteStride": 8,
      "name": "floatBufferViews",
      "target": 34962
    },
    {
      "buffer": 0,
      "byteLength": 154752,
      "byteOffset": 113608,
      "byteStride": 12,
      "name": "floatBufferViews",
      "target": 34962
    }
  ],
  "buffers": [
    {
      "byteLength": 268360,
      "uri": "scene.bin"
    }
  ],
  "materials": [
    {
      "doubleSided": true,
      "name": "plastic_reel",
      "pbrMetallicRoughness": {
        "baseColorFactor": [
          0.5,
          0.5,
          0.5,
          1.0
        ],
        "metallicFactor": 0.0,
        "roughnessFactor": 0.4
      }
    },
    {
      "doubleSided": true,
      "name": "film_spool",
      "pbrMetallicRoughness": {
        "baseColorFactor": [
          0.0,
          0.0,
          0.0,
          1.0
        ],
        "metallicFactor": 0.0,
        "roughnessFactor": 0.4
      }
    },
    {
      "doubleSided": true,
      "name": "black_plastic",
      "pbrMetallicRoughness": {
        "baseColorFactor": [
          0.01,
          0.01,
          0.01,
          1.0
        ],
        "metallicFactor": 0.0,
        "roughnessFactor": 0.5
      }
    },
    {
      "alphaMode": "BLEND",
      "doubleSided": true,
      "name": "plastic_window",
      "pbrMetallicRoughness": {
        "baseColorFactor": [
          0.8,
          0.8,
          0.8,
          0.035
        ],
        "metallicFactor": 0.0,
        "roughnessFactor": 0.04
      }
    },
    {
      "doubleSided": true,
      "name": "sticker",
      "pbrMetallicRoughness": {
        "baseColorFactor": [
          0.8,
          0.8,
          0.8,
          1.0
        ],
        "metallicFactor": 0.0,
        "roughnessFactor": 0.25
      }
    }
  ],
  "meshes": [
    {
      "name": "reel_left_plastic reel_0",
      "primitives": [
        {
          "attributes": {
            "NORMAL": 1,
            "POSITION": 0,
            "TEXCOORD_0": 2
          },
          "indices": 3,
          "material": 0,
          "mode": 4
        }
      ]
    },
    {
      "name": "spool_film spool_0",
      "primitives": [
        {
          "attributes": {
            "NORMAL": 5,
            "POSITION": 4
          },
          "indices": 6,
          "material": 1,
          "mode": 4
        }
      ]
    },
    {
      "name": "reel_right_plastic reel_0",
      "primitives": [
        {
          "attributes": {
            "NORMAL": 8,
            "POSITION": 7,
            "TEXCOORD_0": 9
          },
          "indices": 10,
          "material": 0,
          "mode": 4
        }
      ]
    },
    {
      "name": "vhs tape2_black plastic_0",
      "primitives": [
        {
          "attributes": {
            "NORMAL": 12,
            "POSITION": 11,
            "TEXCOORD_0": 13
          },
          "indices": 14,
          "material": 2,
          "mode": 4
        }
      ]
    },
    {
      "name": "vhs tape2_plastic window_0",
      "primitives": [
        {
          "attributes": {
            "NORMAL": 16,
            "POSITION": 15,
            "TEXCOORD_0": 17
          },
          "indices": 18,
          "material": 3,
          "mode": 4
        }
      ]
    },
    {
      "name": "vhs tape2_sticker_0",
      "primitives": [
        {
          "attributes": {
            "NORMAL": 20,
            "POSITION": 19,
            "TEXCOORD_0": 21
          },
          "indices": 22,
          "material": 4,
          "mode": 4
        }
      ]
    }
  ],
  "nodes": [
    {
      "children": [
        1
      ],
      "matrix": [
        1.0,
        0.0,
        0.0,
        0.0,
        0.0,
        2.220446049250313e-16,
        -1.0,
        0.0,
        0.0,
        1.0,
        2.220446049250313e-16,
        0.0,
        0.0,
        0.0,
        0.0,
        1.0
      ],
      "name": "Sketchfab_model"
    },
    {
      "children": [
        2
      ],
      "matrix": [
        0.009999999776482582,
        0.0,
        0.0,
        0.0,
        0.0,
        0.0,
        0.009999999776482582,
        0.0,
        0.0,
        -0.009999999776482582,
        0.0,
        0.0,
        0.0,
        0.0,
        0.0,
        1.0
      ],
      "name": "5d9a3e317e4b4717bc658e16e932472e.fbx"
    },
    {
      "children": [
        3,
        5,
        7,
        9,
        12
      ],
      "name": "RootNode"
    },
    {
      "children": [
        4
      ],
      "matrix": [
        67.5,
        0.0,
        0.0,
        0.0,
        -0.0,
        -1.099714585894862e-05,
        -67.4999999999991,
        0.0,
        0.0,
        15.000000953674117,
        -2.443810346250739e-06,
        0.0,
        -80.0,
        20.0,
        0.0,
        1.0
      ],
      "name": "reel_left"
    },
    {
      "mesh": 0,
      "name": "reel_left_plastic reel_0"
    },
    {
      "children": [
        6
      ],
      "matrix": [
        67.5,
        0.0,
        0.0,
        0.0,
        -0.0,
        -1.099714585894862e-05,
        -67.4999999999991,
        0.0,
        0.0,
        15.000000953674117,
        -2.443810346250739e-06,
        0.0,
        -80.0,
        21.0,
        0.0,
        1.0
      ],
      "name": "spool"
    },
    {
      "mesh": 1,
      "name": "spool_film spool_0"
    },
    {
      "children": [
        8
      ],
      "matrix": [
        67.5,
        0.0,
        0.0,
        0.0,
        0.0,
        -1.099714585894862e-05,
        -67.4999999999991,
        0.0,
        0.0,
        15.000000953674117,
        -2.443810346250739e-06,
        0.0,
        80.0,
        20.0,
        0.0,
        1.0
      ],
      "name": "reel_right"
    },
    {
      "mesh": 2,
      "name": "reel_right_plastic reel_0"
    },
    {
      "children": [
        10
      ],
      "matrix": [
        100.0,
        0.0,
        0.0,
        0.0,
        0.0,
        99.99999999999972,
        -7.5497901264043296e-06,
        0.0,
        0.0,
        7.5497901264043296e-06,
        99.99999999999972,
        0.0,
        0.0,
        250.0,
        0.0,
        1.0
      ],
      "name": "Point light"
    },
    {
      "children": [
        11
      ],
      "matrix": [
        1.0,
        0.0,
        0.0,
        0.0,
        0.0,
        2.220446049250313e-16,
        1.0,
        0.0,
        0.0,
        -1.0,
        2.220446049250313e-16,
        0.0,
        0.0,
        0.0,
        0.0,
        1.0
      ],
      "name": "Object_10"
    },
    {
      "name": "Object_11"
    },
    {
      "children": [
        13,
        14,
        15
      ],
      "matrix": [
        100.0,
        0.0,
        0.0,
        0.0,
        0.0,
        -1.629206793918314e-05,
        -99.99999999999868,
        0.0,
        0.0,
        99.99999999999868,
        -1.629206793918314e-05,
        0.0,
        0.0,
        20.0,
        0.0,
        1.0
      ],
      "name": "vhs tape2"
    },
    {
      "mesh": 3,
      "name": "vhs tape2_black plastic_0"
    },
    {
      "mesh": 4,
      "name": "vhs tape2_plastic window_0"
    },
    {
      "mesh": 5,
      "name": "vhs tape2_sticker_0"
    }
  ],
  "scene": 0,
  "scenes": [
    {
      "name": "Sketchfab_Scene",
      "nodes": [
        0
      ]
    }
  ]
}
