{
  "accessors": [
    {
      "bufferView": 2,
      "componentType": 5126,
      "count": 96,
      "max": [
        0.03733599931001663,
        0.7636529803276062,
        -0.015734000131487846
      ],
      "min": [
        -0.02877200022339821,
        -0.7636529803276062,
        -3.2186150550842285
      ],
      "type": "VEC3"
    },
    {
      "bufferView": 2,
      "byteOffset": 1152,
      "componentType": 5126,
      "count": 96,
      "max": [
        1.0,
        1.0,
        1.0
      ],
      "min": [
        -1.0,
        -1.0,
        -1.0
      ],
      "type": "VEC3"
    },
    {
      "bufferView": 1,
      "componentType": 5126,
      "count": 96,
      "max": [
        1.0,
        0.04931600019335747
      ],
      "min": [
        3.099999958067201e-05,
        0.0
      ],
      "type": "VEC2"
    },
    {
      "bufferView": 0,
      "componentType": 5125,
      "count": 144,
      "type": "SCALAR"
    },
    {
      "bufferView": 2,
      "byteOffset": 2304,
      "componentType": 5126,
      "count": 698,
      "max": [
        0.07618799805641174,
        0.19710899889469147,
        -0.012350999750196934
      ],
      "min": [
        -0.06625799834728241,
        -0.1971219927072525,
        -0.055070001631975174
      ],
      "type": "VEC3"
    },
    {
      "bufferView": 2,
      "byteOffset": 10680,
      "componentType": 5126,
      "count": 698,
      "max": [
        1.0,
        1.0,
        1.0
      ],
      "min": [
        -1.0,
        -1.0,
        -1.0
      ],
      "type": "VEC3"
    },
    {
      "bufferView": 1,
      "byteOffset": 768,
      "componentType": 5126,
      "count": 698,
      "max": [
        0.6923829913139343,
        0.6027830243110657
      ],
      "min": [
        3.099999958067201e-05,
        0.5505369901657104
      ],
      "type": "VEC2"
    },
    {
      "bufferView": 0,
      "byteOffset": 576,
      "componentType": 5125,
      "count": 3072,
      "type": "SCALAR"
    },
    {
      "bufferView": 2,
      "byteOffset": 19056,
      "componentType": 5126,
      "count": 2112,
      "max": [
        0.0235580001026392,
        1.3410810232162476,
        -0.007389000151306391
      ],
      "min": [
        -0.013563999906182289,
        -1.3410940170288086,
        -3.2653799057006836
      ],
      "type": "VEC3"
    },
    {
      "bufferView": 2,
      "byteOffset": 44400,
      "componentType": 5126,
      "count": 2112,
      "max": [
        1.0,
        1.0,
        1.0
      ],
      "min": [
        -1.0,
        -1.0,
        -1.0
      ],
      "type": "VEC3"
    },
    {
      "bufferView": 1,
      "byteOffset": 6352,
      "componentType": 5126,
      "count": 2112,
      "max": [
        0.9921879768371582,
        0.9999690055847168
      ],
      "min": [
        3.099999958067201e-05,
        0.0
      ],
      "type": "VEC2"
    },
    {
      "bufferView": 0,
      "byteOffset": 12864,
      "componentType": 5125,
      "count": 4752,
      "type": "SCALAR"
    },
    {
      "bufferView": 2,
      "byteOffset": 69744,
      "componentType": 5126,
      "count": 304,
      "max": [
        0.045653000473976135,
        1.3092349767684937,
        6.000000212225132e-06
      ],
      "min": [
        -0.0356610007584095,
        -1.3094849586486816,
        -3.2986268997192383
      ],
      "type": "VEC3"
    },
    {
      "bufferView": 2,
      "byteOffset": 73392,
      "componentType": 5126,
      "count": 304,
      "max": [
        1.0,
        1.0,
        1.0
      ],
      "min": [
        -1.0,
        -1.0,
        -1.0
      ],
      "type": "VEC3"
    },
    {
      "bufferView": 1,
      "byteOffset": 23248,
      "componentType": 5126,
      "count": 304,
      "max": [
        1.0,
        0.02831999957561493
      ],
      "min": [
        3.099999958067201e-05,
        0.0
      ],
      "type": "VEC2"
    },
    {
      "bufferView": 0,
      "byteOffset": 31872,
      "componentType": 5125,
      "count": 876,
      "type": "SCALAR"
    },
    {
      "bufferView": 2,
      "byteOffset": 77040,
      "componentType": 5126,
      "count": 96,
      "max": [
        0.7292490005493164,
        2.0,
        0.47924888134002686
      ],
      "min": [
        -0.2292490303516388,
        -2.6411284697499586e-17,
        -0.47924908995628357
      ],
      "type": "VEC3"
    },
    {
      "bufferView": 2,
      "byteOffset": 78192,
      "componentType": 5126,
      "count": 96,
      "max": [
        0.9998453259468079,
        0.9997526407241821,
        0.9998453855514526
      ],
      "min": [
        -0.9998453259468079,
        -0.9997526407241821,
        -0.9998453259468079
      ],
      "type": "VEC3"
    },
    {
      "bufferView": 1,
      "byteOffset": 25680,
      "componentType": 5126,
      "count": 96,
      "max": [
        0.91259765625,
        0.66015625
      ],
      "min": [
        0.150390625,
        0.09375
      ],
      "type": "VEC2"
    },
    {
      "bufferView": 1,
      "byteOffset": 26448,
      "componentType": 5126,
      "count": 96,
      "max": [
        0.9912109375,
        0.9919357299804688
      ],
      "min": [
        0.00806427001953125,
        0.24755859375
      ],
      "type": "VEC2"
    },
    {
      "bufferView": 0,
      "byteOffset": 35376,
      "componentType": 5125,
      "count": 324,
      "type": "SCALAR"
    },
    {
      "bufferView": 2,
      "byteOffset": 79344,
      "componentType": 5126,
      "count": 96,
      "max": [
        0.7292490005493164,
        2.0,
        0.47924888134002686
      ],
      "min": [
        -0.2292490303516388,
        -2.6411284697499586e-17,
        -0.47924908995628357
      ],
      "type": "VEC3"
    },
    {
      "bufferView": 2,
      "byteOffset": 80496,
      "componentType": 5126,
      "count": 96,
      "max": [
        0.9998453259468079,
        0.9997526407241821,
        0.9998453855514526
      ],
      "min": [
        -0.9998453259468079,
        -0.9997526407241821,
        -0.9998453259468079
      ],
      "type": "VEC3"
    },
    {
      "bufferView": 1,
      "byteOffset": 27216,
      "componentType": 5126,
      "count": 96,
      "max": [
        0.91259765625,
        0.66015625
      ],
      "min": [
        0.150390625,
        0.09375
      ],
      "type": "VEC2"
    },
    {
      "bufferView": 1,
      "byteOffset": 27984,
      "componentType": 5126,
      "count": 96,
      "max": [
        0.9912109375,
        0.9919357299804688
      ],
      "min": [
        0.00806427001953125,
        0.24755859375
      ],
      "type": "VEC2"
    },
    {
      "bufferView": 0,
      "byteOffset": 36672,
      "componentType": 5125,
      "count": 324,
      "type": "SCALAR"
    },
    {
      "bufferView": 2,
      "byteOffset": 81648,
      "componentType": 5126,
      "count": 830,
      "max": [
        0.690201997756958,
        1.6710050106048584,
        -1.9977229833602905
      ],
      "min": [
        -0.34785398840904236,
        -2.5222280025482178,
        -3.9030730724334717
      ],
      "type": "VEC3"
    },
    {
      "bufferView": 2,
      "byteOffset": 91608,
      "componentType": 5126,
      "count": 830,
      "max": [
        0.9839893579483032,
        0.9875059127807617,
        0.9805100560188293
      ],
      "min": [
        -0.9839910864830017,
        -0.9875084757804871,
        -0.9852058291435242
      ],
      "type": "VEC3"
    },
    {
      "bufferView": 1,
      "byteOffset": 28752,
      "componentType": 5126,
      "count": 830,
      "max": [
        0.8574219942092896,
        0.9992989897727966
      ],
      "min": [
        3.099999958067201e-05,
        0.0
      ],
      "type": "VEC2"
    },
    {
      "bufferView": 0,
      "byteOffset": 37968,
      "componentType": 5125,
      "count": 2652,
      "type": "SCALAR"
    }
  ],
  "asset": {
    "extras": {
      "author": "alexbon666 (https://sketchfab.com/alexbon.game.us10)",
      "license": "CC-BY-4.0 (http://creativecommons.org/licenses/by/4.0/)",
      "source": "https://sketchfab.com/3d-models/gate-poppy-playtime-18764037a6be448c856c349c428824d8",
      "title": "Gate - Poppy Playtime"
    },
    "generator": "Sketchfab-15.30.0",
    "version": "2.0"
  },
  "bufferViews": [
    {
      "buffer": 0,
      "byteLength": 48576,
      "name": "floatBufferViews",
      "target": 34963
    },
    {
      "buffer": 0,
      "byteLength": 35392,
      "byteOffset": 48576,
      "byteStride": 8,
      "name": "floatBufferViews",
      "target": 34962
    },
    {
      "buffer": 0,
      "byteLength": 101568,
      "byteOffset": 83968,
      "byteStride": 12,
      "name": "floatBufferViews",
      "target": 34962
    }
  ],
  "buffers": [
    {
      "byteLength": 185536,
      "uri": "scene.bin"
    }
  ],
  "images": [
    {
      "uri": "textures/silver_MAT.001_baseColor.png"
    },
    {
      "uri": "textures/blueplastic_MATInst.001_baseColor.jpeg"
    },
    {
      "uri": "textures/blueplastic_MATInst.003_baseColor.jpeg"
    },
    {
      "uri": "textures/Material.001_baseColor.jpeg"
    }
  ],
  "materials": [
    {
      "doubleSided": true,
      "name": "silver_MAT_Inst1.002",
      "pbrMetallicRoughness": {
        "baseColorFactor": [
          0.0236506,
          0.0236506,
          0.0236506,
          1.0
        ],
        "metallicFactor": 0.1,
        "roughnessFactor": 0.5
      }
    },
    {
      "doubleSided": true,
      "name": "silver_MAT_Inst1.003",
      "pbrMetallicRoughness": {
        "baseColorFactor": [
          0.0159949,
          0.0159949,
          0.0159949,
          1.0
        ],
        "metallicFactor": 0.1,
        "roughnessFactor": 0.5
      }
    },
    {
      "doubleSided": true,
      "name": "silver_MAT.001",
      "pbrMetallicRoughness": {
        "baseColorTexture": {
          "index": 0
        },
        "roughnessFactor": 0.5
      }
    },
    {
      "doubleSided": true,
      "name": "silver.001",
      "pbrMetallicRoughness": {
        "baseColorTexture": {
          "index": 0
        },
        "roughnessFactor": 0.5
      }
    },
    {
      "doubleSided": true,
      "name": "blueplastic_MATInst.001",
      "pbrMetallicRoughness": {
        "baseColorTexture": {
          "index": 1
        },
        "metallicFactor": 0.1,
        "roughnessFactor": 0.5
      }
    },
    {
      "doubleSided": true,
      "name": "blueplastic_MATInst.003",
      "pbrMetallicRoughness": {
        "baseColorTexture": {
          "index": 2
        },
        "metallicFactor": 0.1,
        "roughnessFactor": 0.5
      }
    },
    {
      "doubleSided": true,
      "name": "Material.001",
      "pbrMetallicRoughness": {
        "baseColorTexture": {
          "index": 3
        },
        "metallicFactor": 0.0,
        "roughnessFactor": 0.5
      }
    }
  ],
  "meshes": [
    {
      "name": "Object_0",
      "primitives": [
        {
          "attributes": {
            "NORMAL": 1,
            "POSITION": 0,
            "TEXCOORD_0": 2
          },
          "indices": 3,
          "material": 0,
          "mode": 4
        }
      ]
    },
    {
      "name": "Object_1",
      "primitives": [
        {
          "attributes": {
            "NORMAL": 5,
            "POSITION": 4,
            "TEXCOORD_0": 6
          },
          "indices": 7,
          "material": 1,
          "mode": 4
        }
      ]
    },
    {
      "name": "Object_2",
      "primitives": [
        {
          "attributes": {
            "NORMAL": 9,
            "POSITION": 8,
            "TEXCOORD_0": 10
          },
          "indices": 11,
          "material": 2,
          "mode": 4
        }
      ]
    },
    {
      "name": "Object_3",
      "primitives": [
        {
          "attributes": {
            "NORMAL": 13,
            "POSITION": 12,
            "TEXCOORD_0": 14
          },
          "indices": 15,
          "material": 3,
          "mode": 4
        }
      ]
    },
    {
      "name": "Object_4",
      "primitives": [
        {
          "attributes": {
            "NORMAL": 17,
            "POSITION": 16,
            "TEXCOORD_0": 18,
            "TEXCOORD_1": 19
          },
          "indices": 20,
          "material": 4,
          "mode": 4
        }
      ]
    },
    {
      "name": "Object_5",
      "primitives": [
        {
          "attributes": {
            "NORMAL": 22,
            "POSITION": 21,
            "TEXCOORD_0": 23,
            "TEXCOORD_1": 24
          },
          "indices": 25,
          "material": 5,
          "mode": 4
        }
      ]
    },
    {
      "name": "Object_6",
      "primitives": [
        {
          "attributes": {
            "NORMAL": 27,
            "POSITION": 26,
            "TEXCOORD_0": 28
          },
          "indices": 29,
          "material": 6,
          "mode": 4
        }
      ]
    }
  ],
  "nodes": [
    {
      "children": [
        1
      ],
      "matrix": [
        0.9999882578849792,
        -0.004840006120502949,
        -1.0746972468618107e-18,
        0.0,
        0.0,
        2.220446049250313e-16,
        -1.0,
        0.0,
        0.004840006120502949,
        0.9999882578849792,
        2.2204199765174054e-16,
        0.0,
        0.0,
        0.0,
        0.0,
        1.0
      ],
      "name": "Sketchfab_model"
    },
    {
      "children": [
        2
      ],
      "name": "root"
    },
    {
      "children": [
        3,
        7,
        9,
        11,
        13
      ],
      "matrix": [
        1.0,
        0.0,
        0.0,
        0.0,
        0.0,
        2.220446049250313e-16,
        1.0,
        0.0,
        0.0,
        -1.0,
        2.220446049250313e-16,
        0.0,
        0.0,
        0.0,
        0.0,
        1.0
      ],
      "name": "GLTF_SceneRootNode"
    },
    {
      "children": [
        4,
        5,
        6
      ],
      "matrix": [
        1.0,
        0.0,
        0.0,
        0.0,
        0.0,
        -1.685873969314855e-07,
        0.9999999999999858,
        0.0,
        0.0,
        -1.297590851783734,
        -2.1875746398433184e-07,
        0.0,
        0.0,
        0.0,
        0.0,
        1.0
      ],
      "name": "factory_grate.001_2"
    },
    {
      "mesh": 0,
      "name": "Object_4"
    },
    {
      "mesh": 1,
      "name": "Object_5"
    },
    {
      "mesh": 2,
      "name": "Object_6"
    },
    {
      "children": [
        8
      ],
      "matrix": [
        1.0,
        0.0,
        0.0,
        0.0,
        0.0,
        -1.685873969314855e-07,
        0.9999999999999858,
        0.0,
        0.0,
        -1.297590851783734,
        -2.1875746398433184e-07,
        0.0,
        0.0,
        0.0,
        0.0,
        1.0
      ],
      "name": "factory_grate_frame.001_3"
    },
    {
      "mesh": 3,
      "name": "Object_8"
    },
    {
      "children": [
        10
      ],
      "matrix": [
        1.0237839221954346,
        0.0,
        0.0,
        0.0,
        0.0,
        1.3041925430297852,
        0.0,
        0.0,
        0.0,
        0.0,
        1.0,
        0.0,
        -0.23947930335998535,
        -0.04259907454252243,
        1.8054656982421875,
        1.0
      ],
      "name": "bb_rect.001_4"
    },
    {
      "mesh": 4,
      "name": "Object_10"
    },
    {
      "children": [
        12
      ],
      "matrix": [
        1.0237839221954346,
        0.0,
        0.0,
        0.0,
        0.0,
        1.3041925430297852,
        0.0,
        0.0,
        0.0,
        0.0,
        1.0,
        0.0,
        -0.23947930335998535,
        -0.04259907454252243,
        -1.802320957183838,
        1.0
      ],
      "name": "bb_rect.002_5"
    },
    {
      "mesh": 5,
      "name": "Object_12"
    },
    {
      "children": [
        14
      ],
      "matrix": [
        0.9656704068183899,
        0.0,
        0.0,
        0.0,
        0.0,
        -1.7892625246504055e-07,
        1.0613263845443575,
        0.0,
        0.0,
        -1.0911966562270963,
        -1.8396200381366983e-07,
        0.0,
        -0.11934828758239746,
        0.38877633213996887,
        0.46157190203666687,
        1.0
      ],
      "name": "dome_room_walls.016_6"
    },
    {
      "mesh": 6,
      "name": "Object_14"
    }
  ],
  "samplers": [
    {
      "magFilter": 9729,
      "minFilter": 9987,
      "wrapS": 10497,
      "wrapT": 10497
    }
  ],
  "scene": 0,
  "scenes": [
    {
      "name": "Sketchfab_Scene",
      "nodes": [
        0
      ]
    }
  ],
  "textures": [
    {
      "sampler": 0,
      "source": 0
    },
    {
      "sampler": 0,
      "source": 1
    },
    {
      "sampler": 0,
      "source": 2
    },
    {
      "sampler": 0,
      "source": 3
    }
  ]
}
