{
  "accessors": [
    {
      "bufferView": 2,
      "componentType": 5126,
      "count": 9949,
      "max": [
        0.21055467426776886,
        0.16926702857017517,
        1.8283518552780151
      ],
      "min": [
        -0.21055467426776886,
        -0.3088483214378357,
        1.3767313957214355
      ],
      "type": "VEC3"
    },
    {
      "bufferView": 2,
      "byteOffset": 119388,
      "componentType": 5126,
      "count": 9949,
      "max": [
        0.9999848008155823,
        0.9999845623970032,
        0.999984860420227
      ],
      "min": [
        -0.9999845623970032,
        -0.9999847412109375,
        -0.999984622001648
      ],
      "type": "VEC3"
    },
    {
      "bufferView": 3,
      "componentType": 5126,
      "count": 9949,
      "max": [
        0.999992311000824,
        0.9999921917915344,
        0.9999923706054688,
        1.0
      ],
      "min": [
        -0.9999923706054688,
        -0.9999895691871643,
        -0.9999916553497314,
        1.0
      ],
      "type": "VEC4"
    },
    {
      "bufferView": 1,
      "componentType": 5126,
      "count": 9949,
      "max": [
        1.0,
        0.951934814453125
      ],
      "min": [
        0.0,
        0.0
      ],
      "type": "VEC2"
    },
    {
      "bufferView": 1,
      "byteOffset": 79592,
      "componentType": 5126,
      "count": 9949,
      "max": [
        0.9921875,
        0.9919357299804688
      ],
      "min": [
        0.00806427001953125,
        0.00830078125
      ],
      "type": "VEC2"
    },
    {
      "bufferView": 0,
      "componentType": 5125,
      "count": 36876,
      "type": "SCALAR"
    }
  ],
  "asset": {
    "extras": {
      "author": "KPMisParrot (https://sketchfab.com/KPMisParrot)",
      "license": "CC-BY-4.0 (http://creativecommons.org/licenses/by/4.0/)",
      "source": "https://sketchfab.com/3d-models/gas-mask-poppy-playtime-chapter-3-ac54e03e95e341b3a2b01cb2a97ac8d2",
      "title": "Gas Mask | Poppy Playtime Chapter 3"
    },
    "generator": "Sketchfab-15.70.0",
    "version": "2.0"
  },
  "bufferViews": [
    {
      "buffer": 0,
      "byteLength": 147504,
      "name": "floatBufferViews",
      "target": 34963
    },
    {
      "buffer": 0,
      "byteLength": 159184,
      "byteOffset": 147504,
      "byteStride": 8,
      "name": "floatBufferViews",
      "target": 34962
    },
    {
      "buffer": 0,
      "byteLength": 238776,
      "byteOffset": 306688,
      "byteStride": 12,
      "name": "floatBufferViews",
      "target": 34962
    },
    {
      "buffer": 0,
      "byteLength": 159184,
      "byteOffset": 545464,
      "byteStride": 16,
      "name": "floatBufferViews",
      "target": 34962
    }
  ],
  "buffers": [
    {
      "byteLength": 704648,
      "uri": "scene.bin"
    }
  ],
  "images": [
    {
      "uri": "textures/MI_Outfit_Gasmask_baseColor.png"
    },
    {
      "uri": "textures/MI_Outfit_Gasmask_normal.png"
    }
  ],
  "materials": [
    {
      "doubleSided": true,
      "name": "MI_Outfit_Gasmask",
      "normalTexture": {
        "index": 1
      },
      "pbrMetallicRoughness": {
        "baseColorTexture": {
          "index": 0
        },
        "metallicFactor": 0.0,
        "roughnessFactor": 0.8211145618000169
      }
    }
  ],
  "meshes": [
    {
      "name": "SM_GasMaskPickUp.mo_MI_Outfit_Gasmask_0",
      "primitives": [
        {
          "attributes": {
            "NORMAL": 1,
            "POSITION": 0,
            "TANGENT": 2,
            "TEXCOORD_0": 3,
            "TEXCOORD_1": 4
          },
          "indices": 5,
          "material": 0,
          "mode": 4
        }
      ]
    }
  ],
  "nodes": [
    {
      "children": [
        1
      ],
      "matrix": [
        1.0,
        0.0,
        0.0,
        0.0,
        0.0,
        2.220446049250313e-16,
        -1.0,
        0.0,
        0.0,
        1.0,
        2.220446049250313e-16,
        0.0,
        0.0,
        0.0,
        0.0,
        1.0
      ],
      "name": "Sketchfab_model"
    },
    {
      "children": [
        2
      ],
      "matrix": [
        0.009999999776482582,
        0.0,
        0.0,
        0.0,
        0.0,
        0.0,
        0.009999999776482582,
        0.0,
        0.0,
        -0.009999999776482582,
        0.0,
        0.0,
        0.0,
        0.0,
        0.0,
        1.0
      ],
      "name": "8174ae026f5343459ef07df8e64d98e9.fbx"
    },
    {
      "children": [
        3
      ],
      "name": "RootNode"
    },
    {
      "children": [
        4
      ],
      "matrix": [
        100.0,
        0.0,
        0.0,
        0.0,
        0.0,
        -1.629206793918314e-05,
        -99.99999999999868,
        0.0,
        0.0,
        99.99999999999868,
        -1.629206793918314e-05,
        0.0,
        0.0,
        -146.65609741210938,
        0.0,
        1.0
      ],
      "name": "SM_GasMaskPickUp.mo"
    },
    {
      "mesh": 0,
      "name": "SM_GasMaskPickUp.mo_MI_Outfit_Gasmask_0"
    }
  ],
  "samplers": [
    {
      "magFilter": 9729,
      "minFilter": 9987,
      "wrapS": 10497,
      "wrapT": 10497
    }
  ],
  "scene": 0,
  "scenes": [
    {
      "name": "Sketchfab_Scene",
      "nodes": [
        0
      ]
    }
  ],
  "textures": [
    {
      "sampler": 0,
      "source": 0
    },
    {
      "sampler": 0,
      "source": 1
    }
  ]
}
