{
  "accessors": [
    {
      "bufferView": 2,
      "componentType": 5126,
      "count": 110,
      "max": [
        0.09452090412378311,
        0.629257321357727,
        2.107137680053711
      ],
      "min": [
        -0.15000025928020477,
        -0.6292574405670166,
        0.003382338210940361
      ],
      "type": "VEC3"
    },
    {
      "bufferView": 2,
      "byteOffset": 1320,
      "componentType": 5126,
      "count": 110,
      "max": [
        1.0,
        1.0,
        1.0
      ],
      "min": [
        -1.0,
        -1.0,
        -1.0
      ],
      "type": "VEC3"
    },
    {
      "bufferView": 1,
      "componentType": 5126,
      "count": 110,
      "max": [
        1.0,
        0.941864013671875
      ],
      "min": [
        3.0517578125e-05,
        0.0
      ],
      "type": "VEC2"
    },
    {
      "bufferView": 1,
      "byteOffset": 880,
      "componentType": 5126,
      "count": 110,
      "max": [
        0.94873046875,
        0.9919357299804688
      ],
      "min": [
        0.00806427001953125,
        0.11376953125
      ],
      "type": "VEC2"
    },
    {
      "bufferView": 0,
      "componentType": 5125,
      "count": 252,
      "type": "SCALAR"
    },
    {
      "bufferView": 2,
      "byteOffset": 2640,
      "componentType": 5126,
      "count": 2089,
      "max": [
        0.045783691108226776,
        0.5348730087280273,
        2.0044972896575928
      ],
      "min": [
        -0.1690087914466858,
        -0.5266174077987671,
        0.003382936120033264
      ],
      "type": "VEC3"
    },
    {
      "bufferView": 2,
      "byteOffset": 27708,
      "componentType": 5126,
      "count": 2089,
      "max": [
        1.0,
        1.0,
        1.0
      ],
      "min": [
        -1.0,
        -1.0,
        -1.0
      ],
      "type": "VEC3"
    },
    {
      "bufferView": 1,
      "byteOffset": 1760,
      "componentType": 5126,
      "count": 2089,
      "max": [
        0.96728515625,
        0.90570068359375
      ],
      "min": [
        3.0517578125e-05,
        0.0
      ],
      "type": "VEC2"
    },
    {
      "bufferView": 1,
      "byteOffset": 18472,
      "componentType": 5126,
      "count": 2089,
      "max": [
        0.99267578125,
        0.9980316162109375
      ],
      "min": [
        0.0019683837890625,
        0.0068359375
      ],
      "type": "VEC2"
    },
    {
      "bufferView": 0,
      "byteOffset": 1008,
      "componentType": 5125,
      "count": 7296,
      "type": "SCALAR"
    }
  ],
  "asset": {
    "extras": {
      "author": "alexbon (https://sketchfab.com/alexbon.game.us10)",
      "license": "CC-BY-4.0 (http://creativecommons.org/licenses/by/4.0/)",
      "source": "https://sketchfab.com/3d-models/door-poppy-playtime-0adfe9b20dd0478eab58416766bb2346",
      "title": "Door - Poppy Playtime"
    },
    "generator": "Sketchfab-15.83.0",
    "version": "2.0"
  },
  "bufferViews": [
    {
      "buffer": 0,
      "byteLength": 30192,
      "name": "floatBufferViews",
      "target": 34963
    },
    {
      "buffer": 0,
      "byteLength": 35184,
      "byteOffset": 30192,
      "byteStride": 8,
      "name": "floatBufferViews",
      "target": 34962
    },
    {
      "buffer": 0,
      "byteLength": 52776,
      "byteOffset": 65376,
      "byteStride": 12,
      "name": "floatBufferViews",
      "target": 34962
    }
  ],
  "buffers": [
    {
      "byteLength": 118152,
      "uri": "scene.bin"
    }
  ],
  "images": [
    {
      "uri": "textures/door_a_MAT_baseColor.png"
    }
  ],
  "materials": [
    {
      "doubleSided": true,
      "name": "door_a_MAT",
      "pbrMetallicRoughness": {
        "baseColorTexture": {
          "index": 0
        },
        "metallicFactor": 0.0,
        "roughnessFactor": 0.9329179606750063
      }
    },
    {
      "doubleSided": true,
      "name": "door_a_MAT.001",
      "pbrMetallicRoughness": {
        "baseColorTexture": {
          "index": 0
        },
        "metallicFactor": 0.0,
        "roughnessFactor": 0.9329179606750063
      }
    }
  ],
  "meshes": [
    {
      "name": "door_a_frame_door_a_MAT_0",
      "primitives": [
        {
          "attributes": {
            "NORMAL": 1,
            "POSITION": 0,
            "TEXCOORD_0": 2,
            "TEXCOORD_1": 3
          },
          "indices": 4,
          "material": 0,
          "mode": 4
        }
      ]
    },
    {
      "name": "door_a_merged_door_a_MAT.001_0",
      "primitives": [
        {
          "attributes": {
            "NORMAL": 6,
            "POSITION": 5,
            "TEXCOORD_0": 7,
            "TEXCOORD_1": 8
          },
          "indices": 9,
          "material": 1,
          "mode": 4
        }
      ]
    }
  ],
  "nodes": [
    {
      "children": [
        1
      ],
      "matrix": [
        1.0,
        0.0,
        0.0,
        0.0,
        0.0,
        2.220446049250313e-16,
        -1.0,
        0.0,
        0.0,
        1.0,
        2.220446049250313e-16,
        0.0,
        0.0,
        0.0,
        0.0,
        1.0
      ],
      "name": "Sketchfab_model"
    },
    {
      "children": [
        2
      ],
      "matrix": [
        0.009999999776482582,
        0.0,
        0.0,
        0.0,
        0.0,
        0.0,
        0.009999999776482582,
        0.0,
        0.0,
        -0.009999999776482582,
        0.0,
        0.0,
        0.0,
        0.0,
        0.0,
        1.0
      ],
      "name": "Door.fbx"
    },
    {
      "children": [
        3,
        5
      ],
      "name": "RootNode"
    },
    {
      "children": [
        4
      ],
      "matrix": [
        217.02915954589844,
        0.0,
        0.0,
        0.0,
        0.0,
        -3.5358538121055944e-05,
        -217.02915954589557,
        0.0,
        0.0,
        217.02915954589557,
        -3.5358538121055944e-05,
        0.0,
        907.0462036132813,
        -6.297654151916504,
        1253.0185546875,
        1.0
      ],
      "name": "door_a_frame"
    },
    {
      "mesh": 0,
      "name": "door_a_frame_door_a_MAT_0"
    },
    {
      "children": [
        6
      ],
      "matrix": [
        222.5907745361328,
        0.0,
        0.0,
        0.0,
        0.0,
        -3.472426963931534e-05,
        -213.13604736327844,
        0.0,
        0.0,
        222.59075927734082,
        -3.6264637727808445e-05,
        0.0,
        915.7779541015625,
        -13.624090194702148,
        1250.685302734375,
        1.0
      ],
      "name": "door_a_merged"
    },
    {
      "mesh": 1,
      "name": "door_a_merged_door_a_MAT.001_0"
    }
  ],
  "samplers": [
    {
      "magFilter": 9729,
      "minFilter": 9987,
      "wrapS": 10497,
      "wrapT": 10497
    }
  ],
  "scene": 0,
  "scenes": [
    {
      "name": "Sketchfab_Scene",
      "nodes": [
        0
      ]
    }
  ],
  "textures": [
    {
      "sampler": 0,
      "source": 0
    }
  ]
}
