{
  "accessors": [
    {
      "bufferView": 2,
      "componentType": 5126,
      "count": 1894,
      "max": [
        0.8090572357177734,
        1.1097763776779175,
        0.12594351172447205
      ],
      "min": [
        -0.8090572357177734,
        -0.865932822227478,
        -0.0029760824982076883
      ],
      "type": "VEC3"
    },
    {
      "bufferView": 2,
      "byteOffset": 22728,
      "componentType": 5126,
      "count": 1894,
      "max": [
        0.999984860420227,
        0.9999845623970032,
        0.9999848008155823
      ],
      "min": [
        -0.9999845623970032,
        -0.9999847412109375,
        -0.9999845623970032
      ],
      "type": "VEC3"
    },
    {
      "bufferView": 1,
      "componentType": 5126,
      "count": 1894,
      "max": [
        0.9931640625,
        0.9993629455566406
      ],
      "min": [
        0.0007371902465820313,
        0.0009765625
      ],
      "type": "VEC2"
    },
    {
      "bufferView": 1,
      "byteOffset": 15152,
      "componentType": 5126,
      "count": 1894,
      "max": [
        0.9326171875,
        0.99603271484375
      ],
      "min": [
        0.00371551513671875,
        0.00390625
      ],
      "type": "VEC2"
    },
    {
      "bufferView": 1,
      "byteOffset": 30304,
      "componentType": 5126,
      "count": 1894,
      "max": [
        0.986328125,
        0.9919357299804688
      ],
      "min": [
        0.00806427001953125,
        0.0087890625
      ],
      "type": "VEC2"
    },
    {
      "bufferView": 0,
      "componentType": 5125,
      "count": 5592,
      "type": "SCALAR"
    }
  ],
  "asset": {
    "extras": {
      "author": "popuitwe1 (https://sketchfab.com/popuitwe1)",
      "license": "CC-BY-4.0 (http://creativecommons.org/licenses/by/4.0/)",
      "source": "https://sketchfab.com/3d-models/poppy-playtime-3-purple-hand-pannel-jump-pad-aa130ca0351a4c31b8c67ffc8354b5e6",
      "title": "Poppy Playtime 3 : purple hand pannel (jump pad)"
    },
    "generator": "Sketchfab-16.8.0",
    "version": "2.0"
  },
  "bufferViews": [
    {
      "buffer": 0,
      "byteLength": 22368,
      "name": "floatBufferViews",
      "target": 34963
    },
    {
      "buffer": 0,
      "byteLength": 45456,
      "byteOffset": 22368,
      "byteStride": 8,
      "name": "floatBufferViews",
      "target": 34962
    },
    {
      "buffer": 0,
      "byteLength": 45456,
      "byteOffset": 67824,
      "byteStride": 12,
      "name": "floatBufferViews",
      "target": 34962
    }
  ],
  "buffers": [
    {
      "byteLength": 113280,
      "uri": "scene.bin"
    }
  ],
  "extensionsUsed": [
    "KHR_materials_unlit"
  ],
  "images": [
    {
      "uri": "textures/Material.052_baseColor.png"
    }
  ],
  "materials": [
    {
      "doubleSided": true,
      "extensions": {
        "KHR_materials_unlit": {}
      },
      "name": "Material.052",
      "pbrMetallicRoughness": {
        "baseColorTexture": {
          "index": 0
        },
        "metallicFactor": 0.0
      }
    }
  ],
  "meshes": [
    {
      "name": "SM_Jump_Pad.mo_Material.052_0",
      "primitives": [
        {
          "attributes": {
            "NORMAL": 1,
            "POSITION": 0,
            "TEXCOORD_0": 2,
            "TEXCOORD_1": 3,
            "TEXCOORD_2": 4
          },
          "indices": 5,
          "material": 0,
          "mode": 4
        }
      ]
    }
  ],
  "nodes": [
    {
      "children": [
        1
      ],
      "matrix": [
        1.0,
        0.0,
        0.0,
        0.0,
        0.0,
        2.220446049250313e-16,
        -1.0,
        0.0,
        0.0,
        1.0,
        2.220446049250313e-16,
        0.0,
        0.0,
        0.0,
        0.0,
        1.0
      ],
      "name": "Sketchfab_model"
    },
    {
      "children": [
        2
      ],
      "matrix": [
        0.009999999776482582,
        0.0,
        0.0,
        0.0,
        0.0,
        0.0,
        0.009999999776482582,
        0.0,
        0.0,
        -0.009999999776482582,
        0.0,
        0.0,
        0.0,
        0.0,
        0.0,
        1.0
      ],
      "name": "47b37597ae56463d8d4bdb76da5a1915.fbx"
    },
    {
      "children": [
        3
      ],
      "name": "RootNode"
    },
    {
      "children": [
        4
      ],
      "matrix": [
        170.0303955078125,
        0.0,
        0.0,
        0.0,
        0.0,
        -2.7701467553394612e-05,
        -170.03039550781025,
        0.0,
        0.0,
        170.03039550781025,
        -2.7701467553394612e-05,
        0.0,
        0.0,
        0.0,
        14.131583213806152,
        1.0
      ],
      "name": "SM_Jump_Pad.mo"
    },
    {
      "mesh": 0,
      "name": "SM_Jump_Pad.mo_Material.052_0"
    }
  ],
  "samplers": [
    {
      "magFilter": 9729,
      "minFilter": 9987,
      "wrapS": 10497,
      "wrapT": 10497
    }
  ],
  "scene": 0,
  "scenes": [
    {
      "name": "Sketchfab_Scene",
      "nodes": [
        0
      ]
    }
  ],
  "textures": [
    {
      "sampler": 0,
      "source": 0
    }
  ]
}
