{
  "accessors": [
    {
      "bufferView": 2,
      "componentType": 5126,
      "count": 230,
      "max": [
        0.19932930171489716,
        0.08829972892999649,
        0.45463207364082336
      ],
      "min": [
        -0.19932930171489716,
        -0.26489919424057007,
        -0.15154406428337097
      ],
      "type": "VEC3"
    },
    {
      "bufferView": 2,
      "byteOffset": 2760,
      "componentType": 5126,
      "count": 230,
      "max": [
        0.9999847412109375,
        0.999984622001648,
        0.9999233484268188
      ],
      "min": [
        -0.9999845623970032,
        -0.9999849200248718,
        -0.9999219179153442
      ],
      "type": "VEC3"
    },
    {
      "bufferView": 1,
      "componentType": 5126,
      "count": 230,
      "max": [
        0.99853515625,
        0.9989185333251953
      ],
      "min": [
        0.0009059906005859375,
        0.2158203125
      ],
      "type": "VEC2"
    },
    {
      "bufferView": 1,
      "byteOffset": 1840,
      "componentType": 5126,
      "count": 230,
      "max": [
        0.94287109375,
        0.99603271484375
      ],
      "min": [
        0.0037555694580078125,
        0.00390625
      ],
      "type": "VEC2"
    },
    {
      "bufferView": 0,
      "componentType": 5125,
      "count": 552,
      "type": "SCALAR"
    },
    {
      "bufferView": 2,
      "byteOffset": 5520,
      "componentType": 5126,
      "count": 765,
      "max": [
        0.17533887922763824,
        0.04808410629630089,
        0.07032884657382965
      ],
      "min": [
        -0.17579242587089539,
        -0.642559289932251,
        -0.0703289583325386
      ],
      "type": "VEC3"
    },
    {
      "bufferView": 2,
      "byteOffset": 14700,
      "componentType": 5126,
      "count": 765,
      "max": [
        0.9999848008155823,
        0.9999845623970032,
        0.9999847412109375
      ],
      "min": [
        -0.9999845623970032,
        -0.9999848008155823,
        -0.9999845623970032
      ],
      "type": "VEC3"
    },
    {
      "bufferView": 1,
      "byteOffset": 3680,
      "componentType": 5126,
      "count": 765,
      "max": [
        0.98095703125,
        0.98004150390625
      ],
      "min": [
        0.0009059906005859375,
        0.0009765625
      ],
      "type": "VEC2"
    },
    {
      "bufferView": 1,
      "byteOffset": 9800,
      "componentType": 5126,
      "count": 765,
      "max": [
        0.8984375,
        0.99603271484375
      ],
      "min": [
        0.0035800933837890625,
        0.00390625
      ],
      "type": "VEC2"
    },
    {
      "bufferView": 0,
      "byteOffset": 2208,
      "componentType": 5125,
      "count": 2430,
      "type": "SCALAR"
    }
  ],
  "asset": {
    "extras": {
      "author": "TOY WAR (https://sketchfab.com/toywar.com)",
      "license": "CC-BY-4.0 (http://creativecommons.org/licenses/by/4.0/)",
      "source": "https://sketchfab.com/3d-models/poppy-playtime-3-switch-lever-0039904b89cc4884b30304ecdbabd0e2",
      "title": "Poppy Playtime 3 Switch Lever"
    },
    "generator": "Sketchfab-16.8.0",
    "version": "2.0"
  },
  "bufferViews": [
    {
      "buffer": 0,
      "byteLength": 11928,
      "name": "floatBufferViews",
      "target": 34963
    },
    {
      "buffer": 0,
      "byteLength": 15920,
      "byteOffset": 11928,
      "byteStride": 8,
      "name": "floatBufferViews",
      "target": 34962
    },
    {
      "buffer": 0,
      "byteLength": 23880,
      "byteOffset": 27848,
      "byteStride": 12,
      "name": "floatBufferViews",
      "target": 34962
    }
  ],
  "buffers": [
    {
      "byteLength": 51728,
      "uri": "scene.bin"
    }
  ],
  "images": [
    {
      "uri": "textures/Material.322_baseColor.png"
    }
  ],
  "materials": [
    {
      "doubleSided": true,
      "name": "Material.322",
      "pbrMetallicRoughness": {
        "baseColorTexture": {
          "index": 0
        },
        "metallicFactor": 0.0,
        "roughnessFactor": 0.8211145618000169
      }
    },
    {
      "doubleSided": true,
      "name": "Material.323",
      "pbrMetallicRoughness": {
        "baseColorTexture": {
          "index": 0
        },
        "metallicFactor": 0.0,
        "roughnessFactor": 0.8211145618000169
      }
    }
  ],
  "meshes": [
    {
      "name": "SM_Switch_A.mo_Material.322_0",
      "primitives": [
        {
          "attributes": {
            "NORMAL": 1,
            "POSITION": 0,
            "TEXCOORD_0": 2,
            "TEXCOORD_1": 3
          },
          "indices": 4,
          "material": 0,
          "mode": 4
        }
      ]
    },
    {
      "name": "SM_Switch_A_Lever.mo_Material.323_0",
      "primitives": [
        {
          "attributes": {
            "NORMAL": 6,
            "POSITION": 5,
            "TEXCOORD_0": 7,
            "TEXCOORD_1": 8
          },
          "indices": 9,
          "material": 1,
          "mode": 4
        }
      ]
    }
  ],
  "nodes": [
    {
      "children": [
        1
      ],
      "matrix": [
        1.0,
        0.0,
        0.0,
        0.0,
        0.0,
        2.220446049250313e-16,
        -1.0,
        0.0,
        0.0,
        1.0,
        2.220446049250313e-16,
        0.0,
        0.0,
        0.0,
        0.0,
        1.0
      ],
      "name": "Sketchfab_model"
    },
    {
      "children": [
        2
      ],
      "matrix": [
        0.009999999776482582,
        0.0,
        0.0,
        0.0,
        0.0,
        0.0,
        0.009999999776482582,
        0.0,
        0.0,
        -0.009999999776482582,
        0.0,
        0.0,
        0.0,
        0.0,
        0.0,
        1.0
      ],
      "name": "switch lever.fbx"
    },
    {
      "children": [
        3,
        5
      ],
      "name": "RootNode"
    },
    {
      "children": [
        4
      ],
      "matrix": [
        200.5485076904297,
        0.0,
        0.0,
        0.0,
        0.0,
        -3.267349912394273e-05,
        -200.54850769042704,
        0.0,
        0.0,
        200.54850769042704,
        -3.267349912394273e-05,
        0.0,
        18.632125854492188,
        0.0,
        0.0,
        1.0
      ],
      "name": "SM_Switch_A.mo"
    },
    {
      "mesh": 0,
      "name": "SM_Switch_A.mo_Material.322_0"
    },
    {
      "children": [
        6
      ],
      "matrix": [
        200.5485076904297,
        0.0,
        0.0,
        0.0,
        0.0,
        -3.267349912394273e-05,
        -200.54850769042704,
        0.0,
        0.0,
        200.54850769042704,
        -3.267349912394273e-05,
        0.0,
        18.632125854492188,
        29.341787338256836,
        14.354981422424316,
        1.0
      ],
      "name": "SM_Switch_A_Lever.mo"
    },
    {
      "mesh": 1,
      "name": "SM_Switch_A_Lever.mo_Material.323_0"
    }
  ],
  "samplers": [
    {
      "magFilter": 9729,
      "minFilter": 9987,
      "wrapS": 10497,
      "wrapT": 10497
    }
  ],
  "scene": 0,
  "scenes": [
    {
      "name": "Sketchfab_Scene",
      "nodes": [
        0
      ]
    }
  ],
  "textures": [
    {
      "sampler": 0,
      "source": 0
    }
  ]
}
